<mxfile host="app.diagrams.net" modified="2020-12-03T19:53:23.266Z" agent="5.0 (Windows NT 10.0; Win64; x64) AppleWebKit/537.36 (KHTML, like Gecko) Chrome/87.0.4280.88 Safari/537.36" etag="mGpznY0GLAvWhnz3kfRE" version="13.10.6" type="github">
  <diagram id="eDrRoMh0UzgpGO0whAKW" name="Page-1">
    <mxGraphModel dx="1185" dy="662" grid="1" gridSize="10" guides="1" tooltips="1" connect="1" arrows="1" fold="1" page="1" pageScale="1" pageWidth="827" pageHeight="1169" math="0" shadow="0">
      <root>
        <mxCell id="0" />
        <mxCell id="1" parent="0" />
        <mxCell id="omMEvubndnK3b0D8EIoA-24" value="" style="edgeStyle=orthogonalEdgeStyle;rounded=0;orthogonalLoop=1;jettySize=auto;html=1;" edge="1" parent="1" source="omMEvubndnK3b0D8EIoA-17" target="omMEvubndnK3b0D8EIoA-18">
          <mxGeometry relative="1" as="geometry" />
        </mxCell>
        <mxCell id="omMEvubndnK3b0D8EIoA-17" value="Start" style="strokeWidth=2;html=1;shape=mxgraph.flowchart.start_1;whiteSpace=wrap;" vertex="1" parent="1">
          <mxGeometry x="40" y="80" width="100" height="60" as="geometry" />
        </mxCell>
        <mxCell id="omMEvubndnK3b0D8EIoA-25" value="" style="edgeStyle=orthogonalEdgeStyle;rounded=0;orthogonalLoop=1;jettySize=auto;html=1;" edge="1" parent="1" source="omMEvubndnK3b0D8EIoA-18" target="omMEvubndnK3b0D8EIoA-21">
          <mxGeometry relative="1" as="geometry" />
        </mxCell>
        <mxCell id="omMEvubndnK3b0D8EIoA-18" value="Retrieve &lt;br&gt;Supplies" style="rounded=1;whiteSpace=wrap;html=1;absoluteArcSize=1;arcSize=14;strokeWidth=2;" vertex="1" parent="1">
          <mxGeometry x="40" y="200" width="100" height="100" as="geometry" />
        </mxCell>
        <mxCell id="omMEvubndnK3b0D8EIoA-28" value="" style="edgeStyle=orthogonalEdgeStyle;rounded=0;orthogonalLoop=1;jettySize=auto;html=1;" edge="1" parent="1" source="omMEvubndnK3b0D8EIoA-19" target="omMEvubndnK3b0D8EIoA-22">
          <mxGeometry relative="1" as="geometry" />
        </mxCell>
        <mxCell id="omMEvubndnK3b0D8EIoA-19" value="Strain&lt;br&gt;Noodles" style="rounded=1;whiteSpace=wrap;html=1;absoluteArcSize=1;arcSize=14;strokeWidth=2;" vertex="1" parent="1">
          <mxGeometry x="520" y="200" width="100" height="100" as="geometry" />
        </mxCell>
        <mxCell id="omMEvubndnK3b0D8EIoA-27" value="" style="edgeStyle=orthogonalEdgeStyle;rounded=0;orthogonalLoop=1;jettySize=auto;html=1;" edge="1" parent="1" source="omMEvubndnK3b0D8EIoA-20" target="omMEvubndnK3b0D8EIoA-19">
          <mxGeometry relative="1" as="geometry" />
        </mxCell>
        <mxCell id="omMEvubndnK3b0D8EIoA-20" value="Cook&lt;br&gt;Noodles" style="rounded=1;whiteSpace=wrap;html=1;absoluteArcSize=1;arcSize=14;strokeWidth=2;" vertex="1" parent="1">
          <mxGeometry x="364" y="200" width="100" height="100" as="geometry" />
        </mxCell>
        <mxCell id="omMEvubndnK3b0D8EIoA-26" value="" style="edgeStyle=orthogonalEdgeStyle;rounded=0;orthogonalLoop=1;jettySize=auto;html=1;" edge="1" parent="1" source="omMEvubndnK3b0D8EIoA-21" target="omMEvubndnK3b0D8EIoA-20">
          <mxGeometry relative="1" as="geometry" />
        </mxCell>
        <mxCell id="omMEvubndnK3b0D8EIoA-21" value="Boil&lt;br&gt;Water" style="rounded=1;whiteSpace=wrap;html=1;absoluteArcSize=1;arcSize=14;strokeWidth=2;" vertex="1" parent="1">
          <mxGeometry x="200" y="200" width="100" height="100" as="geometry" />
        </mxCell>
        <mxCell id="omMEvubndnK3b0D8EIoA-29" value="" style="edgeStyle=orthogonalEdgeStyle;rounded=0;orthogonalLoop=1;jettySize=auto;html=1;" edge="1" parent="1" source="omMEvubndnK3b0D8EIoA-22" target="omMEvubndnK3b0D8EIoA-23">
          <mxGeometry relative="1" as="geometry" />
        </mxCell>
        <mxCell id="omMEvubndnK3b0D8EIoA-22" value="Add&lt;br&gt;Ingredients" style="rounded=1;whiteSpace=wrap;html=1;absoluteArcSize=1;arcSize=14;strokeWidth=2;" vertex="1" parent="1">
          <mxGeometry x="680" y="200" width="100" height="100" as="geometry" />
        </mxCell>
        <mxCell id="omMEvubndnK3b0D8EIoA-23" value="End" style="strokeWidth=2;html=1;shape=mxgraph.flowchart.start_1;whiteSpace=wrap;" vertex="1" parent="1">
          <mxGeometry x="680" y="360" width="100" height="60" as="geometry" />
        </mxCell>
        <mxCell id="omMEvubndnK3b0D8EIoA-30" value="&lt;font style=&quot;font-size: 18px&quot;&gt;Prepare Macaroni and Cheese&lt;/font&gt;" style="text;html=1;align=center;verticalAlign=middle;resizable=0;points=[];autosize=1;" vertex="1" parent="1">
          <mxGeometry x="550" y="20" width="260" height="20" as="geometry" />
        </mxCell>
        <mxCell id="omMEvubndnK3b0D8EIoA-31" value="Yuriy Titov" style="text;html=1;align=center;verticalAlign=middle;resizable=0;points=[];autosize=1;" vertex="1" parent="1">
          <mxGeometry x="730" y="40" width="70" height="20" as="geometry" />
        </mxCell>
      </root>
    </mxGraphModel>
  </diagram>
</mxfile>
